<svg width="32" height="30" viewBox="0 0 32 30" fill="none" xmlns="http://www.w3.org/2000/svg">
<g clip-path="url(#clip0_15701_8623)">
<path d="M8.11436 29.8939C6.21131 29.8128 5.17752 29.5159 4.48991 29.2644C3.5788 28.9319 2.92924 28.536 2.24543 27.8958C1.56163 27.2556 1.13841 26.6467 0.785568 25.7925C0.517371 25.1479 0.200672 24.1787 0.114126 22.3946C0.019021 20.466 0 19.8874 0 15.0013C0 10.1153 0.0209231 9.53755 0.113175 7.60722C0.199721 5.8231 0.518323 4.85571 0.784617 4.20929C1.13936 3.35513 1.56258 2.74616 2.24448 2.1042C2.92733 1.46402 3.5769 1.06637 4.48896 0.735578C5.17657 0.484144 6.21036 0.187238 8.11341 0.106102C10.1715 0.0178322 10.7897 0 15.9995 0C21.2113 0 21.8276 0.0196154 23.8866 0.106102C25.7896 0.187238 26.8215 0.485927 27.511 0.735578C28.4221 1.06637 29.0717 1.46402 29.7555 2.1042C30.4393 2.74438 30.8606 3.35424 31.2154 4.2084C31.4836 4.85303 31.8003 5.82221 31.8868 7.60632C31.981 9.53666 32 10.1144 32 15.0004C32 19.8847 31.981 20.4642 31.8868 22.3946C31.8003 24.1787 31.4817 25.1479 31.2154 25.7925C30.8606 26.6467 30.4384 27.2556 29.7555 27.8958C29.0727 28.536 28.4221 28.9319 27.511 29.2644C26.8234 29.5159 25.7896 29.8128 23.8866 29.8939C21.8295 29.9822 21.2113 30 15.9995 30C10.7897 30 10.1715 29.9831 8.11436 29.8939Z" fill="url(#paint0_radial_15701_8623)"/>
<path d="M8.11436 29.8939C6.21131 29.8128 5.17752 29.5159 4.48991 29.2644C3.5788 28.9319 2.92924 28.536 2.24543 27.8958C1.56163 27.2556 1.13841 26.6467 0.785568 25.7925C0.517371 25.1479 0.200672 24.1787 0.114126 22.3946C0.019021 20.466 0 19.8874 0 15.0013C0 10.1153 0.0209231 9.53755 0.113175 7.60722C0.199721 5.8231 0.518323 4.85571 0.784617 4.20929C1.13936 3.35513 1.56258 2.74616 2.24448 2.1042C2.92733 1.46402 3.5769 1.06637 4.48896 0.735578C5.17657 0.484144 6.21036 0.187238 8.11341 0.106102C10.1715 0.0178322 10.7897 0 15.9995 0C21.2113 0 21.8276 0.0196154 23.8866 0.106102C25.7896 0.187238 26.8215 0.485927 27.511 0.735578C28.4221 1.06637 29.0717 1.46402 29.7555 2.1042C30.4393 2.74438 30.8606 3.35424 31.2154 4.2084C31.4836 4.85303 31.8003 5.82221 31.8868 7.60632C31.981 9.53666 32 10.1144 32 15.0004C32 19.8847 31.981 20.4642 31.8868 22.3946C31.8003 24.1787 31.4817 25.1479 31.2154 25.7925C30.8606 26.6467 30.4384 27.2556 29.7555 27.8958C29.0727 28.536 28.4221 28.9319 27.511 29.2644C26.8234 29.5159 25.7896 29.8128 23.8866 29.8939C21.8295 29.9822 21.2113 30 15.9995 30C10.7897 30 10.1715 29.9831 8.11436 29.8939Z" fill="url(#paint1_radial_15701_8623)"/>
<path d="M12.0712 15.0639C12.0712 13.0122 13.8448 11.3486 16.0333 11.3486C18.2218 11.3486 19.9963 13.0122 19.9963 15.0639C19.9963 17.1156 18.2218 18.7793 16.0333 18.7793C13.8448 18.7793 12.0712 17.1156 12.0712 15.0639ZM9.92888 15.0639C9.92888 18.2247 12.6618 20.7868 16.0333 20.7868C19.4048 20.7868 22.1377 18.2247 22.1377 15.0639C22.1377 11.9032 19.4048 9.34104 16.0333 9.34104C12.6618 9.34104 9.92897 11.903 9.92897 15.0639M20.9529 9.11413C20.9528 9.37865 21.0363 9.63725 21.193 9.85725C21.3497 10.0772 21.5724 10.2487 21.833 10.3501C22.0936 10.4514 22.3805 10.478 22.6572 10.4265C22.934 10.375 23.1882 10.2477 23.3878 10.0607C23.5874 9.87377 23.7234 9.63552 23.7785 9.37611C23.8337 9.11669 23.8055 8.84777 23.6977 8.60335C23.5898 8.35893 23.407 8.14999 23.1725 8.00294C22.938 7.8559 22.6622 7.77736 22.38 7.77725H22.3795C22.0013 7.77742 21.6386 7.9183 21.3711 8.16896C21.1036 8.41963 20.9532 8.75957 20.9529 9.11413ZM11.2305 24.1359C10.0714 24.0864 9.44146 23.9054 9.02281 23.7525C8.46778 23.5499 8.07176 23.3086 7.65539 22.9188C7.23902 22.529 6.98129 22.1581 6.76616 21.6378C6.60296 21.2455 6.40989 20.6547 6.35721 19.5681C6.29957 18.3933 6.28806 18.0404 6.28806 15.0641C6.28806 12.0878 6.30052 11.7359 6.35721 10.5601C6.40999 9.47354 6.60448 8.88392 6.76616 8.49045C6.98224 7.97011 7.23959 7.59884 7.65539 7.20849C8.07119 6.81815 8.46683 6.57652 9.02281 6.37484C9.44127 6.22184 10.0714 6.04084 11.2305 5.99144C12.4836 5.93741 12.86 5.92662 16.0333 5.92662C19.2066 5.92662 19.5834 5.93813 20.8375 5.99162C21.9966 6.04111 22.6255 6.22344 23.0452 6.37502C23.6002 6.5767 23.9962 6.81886 24.4126 7.20867C24.829 7.59848 25.0858 7.97028 25.3018 8.49063C25.465 8.88294 25.6581 9.47372 25.7108 10.5603C25.7684 11.7361 25.7799 12.088 25.7799 15.0643C25.7799 18.0406 25.7684 18.3925 25.7108 19.5683C25.658 20.6549 25.464 21.2455 25.3018 21.638C25.0858 22.1583 24.8284 22.5296 24.4126 22.919C23.9968 23.3085 23.6002 23.5501 23.0452 23.7527C22.6267 23.9057 21.9966 24.0867 20.8375 24.1361C19.5844 24.1901 19.208 24.2009 16.0333 24.2009C12.8586 24.2009 12.4832 24.1901 11.2305 24.1361M11.1321 3.9863C9.86649 4.04033 9.0017 4.22846 8.24647 4.50397C7.4648 4.78848 6.8022 5.17018 6.14056 5.7895C5.47891 6.40881 5.07281 7.03008 4.76933 7.76379C4.47546 8.47226 4.27479 9.28256 4.21715 10.469C4.15857 11.6574 4.14516 12.0373 4.14516 15.0639C4.14516 18.0906 4.15857 18.4705 4.21715 19.6588C4.27479 20.8454 4.47546 21.6556 4.76933 22.3641C5.07281 23.0969 5.47901 23.7193 6.14056 24.3384C6.80211 24.9574 7.46385 25.3386 8.24647 25.6239C9.00312 25.8994 9.86649 26.0875 11.1321 26.1416C12.4003 26.1956 12.8049 26.2091 16.0333 26.2091C19.2617 26.2091 19.667 26.1965 20.9345 26.1416C22.2002 26.0875 23.0644 25.8994 23.8201 25.6239C24.6018 25.3386 25.2644 24.9577 25.926 24.3384C26.5877 23.7191 26.9929 23.0969 27.2972 22.3641C27.5911 21.6556 27.7927 20.8453 27.8494 19.6588C27.9071 18.4696 27.9205 18.0906 27.9205 15.0639C27.9205 12.0373 27.9071 11.6574 27.8494 10.469C27.7918 9.28247 27.5911 8.47181 27.2972 7.76379C26.9929 7.03097 26.5866 6.40979 25.926 5.7895C25.2654 5.1692 24.6018 4.78848 23.8211 4.50397C23.0644 4.22846 22.2001 4.03944 20.9355 3.9863C19.6677 3.932 19.2627 3.91881 16.0347 3.91881C12.8068 3.91881 12.4008 3.93138 11.1325 3.9863" fill="white"/>
</g>
<defs>
<radialGradient id="paint0_radial_15701_8623" cx="0" cy="0" r="1" gradientUnits="userSpaceOnUse" gradientTransform="translate(2.07101 29.3428) scale(40.6281 38.0889)">
<stop offset="0.09" stop-color="#FA8F21"/>
<stop offset="0.78" stop-color="#D82D7E"/>
</radialGradient>
<radialGradient id="paint1_radial_15701_8623" cx="0" cy="0" r="1" gradientUnits="userSpaceOnUse" gradientTransform="translate(22.1653 28.3795) scale(35.7531 33.5186)">
<stop offset="0.64" stop-color="#8C3AAA" stop-opacity="0"/>
<stop offset="1" stop-color="#8C3AAA"/>
</radialGradient>
<clipPath id="clip0_15701_8623">
<rect width="32" height="30" fill="white"/>
</clipPath>
</defs>
</svg>
