<svg width="26" height="10" viewBox="0 0 26 10" fill="none" xmlns="http://www.w3.org/2000/svg">
<path d="M22.7518 5.68076C21.4082 4.92502 18.3414 1.42449 19.6326 2.26656C20.5622 2.87281 20.9879 4.0074 21.8244 4.73237C23.3602 6.06335 23.6859 6.19007 24.4799 8.12549C24.5412 8.27474 24.3954 7.09269 23.5105 6.65022C22.8164 6.3032 22.331 4.54197 21.7823 5.09065C21.367 5.50594 25.1878 10.0136 22.3724 7.19818C21.0025 5.82824 20.0711 4.73102 18.1152 4.07903C16.2878 3.46989 14.7295 3.10398 12.8885 2.35086C11.7232 1.87414 9.92061 1.8872 8.6313 1.8872C6.2442 1.8872 3.91863 1.50784 1.50784 1.50784" stroke="white" stroke-width="3" stroke-linecap="round"/>
</svg>
